<svg xmlns="http://www.w3.org/2000/svg" xmlns:xlink="http://www.w3.org/1999/xlink" width="48" height="48" viewBox="0 0 48 48" fill="none">
<g clip-path="url(#clip0_6538_26640)">
<rect width="48" height="48"/>
<rect width="48" height="48" fill="url(#pattern0_6538_26640)" fill-opacity="0.2"/>
<rect width="3.59619" height="0.597656" fill="#F2E9FA"/>
<rect x="5.94336" y="1.98013" width="3.59619" height="0.597656" fill="#F2E9FA"/>
<rect x="5.94336" y="5.94116" width="3.59619" height="0.597656" fill="#F2E9FA"/>
<rect x="5.94336" y="9.9012" width="3.59619" height="0.597656" fill="#F2E9FA"/>
<rect x="5.94336" y="13.8612" width="3.59619" height="0.597656" fill="#F2E9FA"/>
<rect x="5.94336" y="17.8213" width="3.59619" height="0.597656" fill="#F2E9FA"/>
<rect x="5.94336" y="21.7813" width="3.59619" height="0.597656" fill="#F2E9FA"/>
<rect x="5.94336" y="25.7413" width="3.59619" height="0.597656" fill="#F2E9FA"/>
<rect x="5.94336" y="29.6947" width="3.59619" height="0.597656" fill="#F2E9FA"/>
<rect x="5.94336" y="33.6481" width="3.59619" height="0.597656" fill="#F2E9FA"/>
<rect x="5.94336" y="37.6015" width="3.59619" height="0.597656" fill="#F2E9FA"/>
<rect x="5.94336" y="41.5549" width="3.59619" height="0.597656" fill="#F2E9FA"/>
<rect x="5.94336" y="45.5083" width="3.59619" height="0.597656" fill="#F2E9FA"/>
<rect x="17.8188" y="1.98013" width="3.59619" height="0.597656" fill="#F2E9FA"/>
<rect x="29.7056" y="1.98013" width="3.59619" height="0.597656" fill="#F2E9FA"/>
<rect x="41.5923" y="1.98013" width="3.59619" height="0.597656" fill="#F2E9FA"/>
<rect x="17.8188" y="5.94116" width="3.59619" height="0.597656" fill="#F2E9FA"/>
<rect x="29.7056" y="5.94116" width="3.59619" height="0.597656" fill="#F2E9FA"/>
<rect x="41.5923" y="5.94116" width="3.59619" height="0.597656" fill="#F2E9FA"/>
<rect x="17.8188" y="9.9012" width="3.59619" height="0.597656" fill="#F2E9FA"/>
<rect x="29.7056" y="9.9012" width="3.59619" height="0.597656" fill="#F2E9FA"/>
<rect x="41.5923" y="9.9012" width="3.59619" height="0.597656" fill="#F2E9FA"/>
<rect x="17.8188" y="13.8612" width="3.59619" height="0.597656" fill="#F2E9FA"/>
<rect x="29.7056" y="13.8612" width="3.59619" height="0.597656" fill="#F2E9FA"/>
<rect x="41.5923" y="13.8612" width="3.59619" height="0.597656" fill="#F2E9FA"/>
<rect x="17.8188" y="17.8213" width="3.59619" height="0.597656" fill="#F2E9FA"/>
<rect x="29.7056" y="17.8213" width="3.59619" height="0.597656" fill="#F2E9FA"/>
<rect x="41.5923" y="17.8213" width="3.59619" height="0.597656" fill="#F2E9FA"/>
<rect x="17.8188" y="21.7813" width="3.59619" height="0.597656" fill="#F2E9FA"/>
<rect x="29.7056" y="21.7813" width="3.59619" height="0.597656" fill="#F2E9FA"/>
<rect x="41.5923" y="21.7813" width="3.59619" height="0.597656" fill="#F2E9FA"/>
<rect x="17.8188" y="25.7413" width="3.59619" height="0.597656" fill="#F2E9FA"/>
<rect x="17.8188" y="29.6947" width="3.59619" height="0.597656" fill="#F2E9FA"/>
<rect x="17.8188" y="33.6481" width="3.59619" height="0.597656" fill="#F2E9FA"/>
<rect x="17.8188" y="37.6015" width="3.59619" height="0.597656" fill="#F2E9FA"/>
<rect x="17.8188" y="41.5549" width="3.59619" height="0.597656" fill="#F2E9FA"/>
<rect x="17.8188" y="45.5083" width="3.59619" height="0.597656" fill="#F2E9FA"/>
<rect x="29.7056" y="25.7413" width="3.59619" height="0.597656" fill="#F2E9FA"/>
<rect x="29.7056" y="29.6947" width="3.59619" height="0.597656" fill="#F2E9FA"/>
<rect x="29.7056" y="33.6481" width="3.59619" height="0.597656" fill="#F2E9FA"/>
<rect x="29.7056" y="37.6015" width="3.59619" height="0.597656" fill="#F2E9FA"/>
<rect x="29.7056" y="41.5549" width="3.59619" height="0.597656" fill="#F2E9FA"/>
<rect x="29.7056" y="45.5083" width="3.59619" height="0.597656" fill="#F2E9FA"/>
<rect x="41.5923" y="25.7413" width="3.59619" height="0.597656" fill="#F2E9FA"/>
<rect x="41.5923" y="29.6947" width="3.59619" height="0.597656" fill="#F2E9FA"/>
<rect x="41.5923" y="33.6481" width="3.59619" height="0.597656" fill="#F2E9FA"/>
<rect x="41.5923" y="37.6015" width="3.59619" height="0.597656" fill="#F2E9FA"/>
<rect x="41.5923" y="41.5549" width="3.59619" height="0.597656" fill="#F2E9FA"/>
<rect x="41.5923" y="45.5083" width="3.59619" height="0.597656" fill="#F2E9FA"/>
<rect y="3.96077" width="3.59619" height="0.597656" fill="#F2E9FA"/>
<rect y="7.92154" width="3.59619" height="0.597656" fill="#F2E9FA"/>
<rect y="11.8823" width="3.59619" height="0.597656" fill="#F2E9FA"/>
<rect y="15.8431" width="3.59619" height="0.597656" fill="#F2E9FA"/>
<rect y="19.8038" width="3.59619" height="0.597656" fill="#F2E9FA"/>
<rect y="23.7646" width="3.59619" height="0.597656" fill="#F2E9FA"/>
<rect y="27.718" width="3.59619" height="0.597656" fill="#F2E9FA"/>
<rect y="31.6714" width="3.59619" height="0.597656" fill="#F2E9FA"/>
<rect y="35.6248" width="3.59619" height="0.597656" fill="#F2E9FA"/>
<rect y="39.5782" width="3.59619" height="0.597656" fill="#F2E9FA"/>
<rect y="43.5315" width="3.59619" height="0.597656" fill="#F2E9FA"/>
<rect y="47.4849" width="3.59619" height="0.597656" fill="#F2E9FA"/>
<rect x="11.8867" width="3.59619" height="0.597656" fill="#F2E9FA"/>
<rect x="11.8867" y="3.96077" width="3.59619" height="0.597656" fill="#F2E9FA"/>
<rect x="11.8867" y="7.92154" width="3.59619" height="0.597656" fill="#F2E9FA"/>
<rect x="11.8867" y="11.8823" width="3.59619" height="0.597656" fill="#F2E9FA"/>
<rect x="11.8867" y="15.8431" width="3.59619" height="0.597656" fill="#F2E9FA"/>
<rect x="11.8867" y="19.8038" width="3.59619" height="0.597656" fill="#F2E9FA"/>
<rect x="11.8867" y="23.7646" width="3.59619" height="0.597656" fill="#F2E9FA"/>
<rect x="11.8867" y="27.718" width="3.59619" height="0.597656" fill="#F2E9FA"/>
<rect x="11.8867" y="31.6714" width="3.59619" height="0.597656" fill="#F2E9FA"/>
<rect x="11.8867" y="35.6248" width="3.59619" height="0.597656" fill="#F2E9FA"/>
<rect x="11.8867" y="39.5782" width="3.59619" height="0.597656" fill="#F2E9FA"/>
<rect x="11.8867" y="43.5315" width="3.59619" height="0.597656" fill="#F2E9FA"/>
<rect x="11.8867" y="47.4849" width="3.59619" height="0.597656" fill="#F2E9FA"/>
<rect x="23.7622" width="3.59619" height="0.597656" fill="#F2E9FA"/>
<rect x="35.6489" width="3.59619" height="0.597656" fill="#F2E9FA"/>
<rect x="47.5356" width="3.59619" height="0.597656" fill="#F2E9FA"/>
<rect x="23.7622" y="3.96077" width="3.59619" height="0.597656" fill="#F2E9FA"/>
<rect x="35.6489" y="3.96077" width="3.59619" height="0.597656" fill="#F2E9FA"/>
<rect x="47.5356" y="3.96077" width="3.59619" height="0.597656" fill="#F2E9FA"/>
<rect x="23.7622" y="7.92154" width="3.59619" height="0.597656" fill="#F2E9FA"/>
<rect x="35.6489" y="7.92154" width="3.59619" height="0.597656" fill="#F2E9FA"/>
<rect x="47.5356" y="7.92154" width="3.59619" height="0.597656" fill="#F2E9FA"/>
<rect x="23.7622" y="11.8823" width="3.59619" height="0.597656" fill="#F2E9FA"/>
<rect x="35.6489" y="11.8823" width="3.59619" height="0.597656" fill="#F2E9FA"/>
<rect x="47.5356" y="11.8823" width="3.59619" height="0.597656" fill="#F2E9FA"/>
<rect x="23.7622" y="15.8431" width="3.59619" height="0.597656" fill="#F2E9FA"/>
<rect x="35.6489" y="15.8431" width="3.59619" height="0.597656" fill="#F2E9FA"/>
<rect x="47.5356" y="15.8431" width="3.59619" height="0.597656" fill="#F2E9FA"/>
<rect x="23.7622" y="19.8038" width="3.59619" height="0.597656" fill="#F2E9FA"/>
<rect x="35.6489" y="19.8038" width="3.59619" height="0.597656" fill="#F2E9FA"/>
<rect x="47.5356" y="19.8038" width="3.59619" height="0.597656" fill="#F2E9FA"/>
<rect x="23.7622" y="23.7646" width="3.59619" height="0.597656" fill="#F2E9FA"/>
<rect x="23.7622" y="27.718" width="3.59619" height="0.597656" fill="#F2E9FA"/>
<rect x="23.7622" y="31.6714" width="3.59619" height="0.597656" fill="#F2E9FA"/>
<rect x="23.7622" y="35.6248" width="3.59619" height="0.597656" fill="#F2E9FA"/>
<rect x="23.7622" y="39.5782" width="3.59619" height="0.597656" fill="#F2E9FA"/>
<rect x="23.7622" y="43.5315" width="3.59619" height="0.597656" fill="#F2E9FA"/>
<rect x="23.7622" y="47.4849" width="3.59619" height="0.597656" fill="#F2E9FA"/>
<rect x="35.6489" y="23.7646" width="3.59619" height="0.597656" fill="#F2E9FA"/>
<rect x="35.6489" y="27.718" width="3.59619" height="0.597656" fill="#F2E9FA"/>
<rect x="35.6489" y="31.6714" width="3.59619" height="0.597656" fill="#F2E9FA"/>
<rect x="35.6489" y="35.6248" width="3.59619" height="0.597656" fill="#F2E9FA"/>
<rect x="35.6489" y="39.5782" width="3.59619" height="0.597656" fill="#F2E9FA"/>
<rect x="35.6489" y="43.5315" width="3.59619" height="0.597656" fill="#F2E9FA"/>
<rect x="35.6489" y="47.4849" width="3.59619" height="0.597656" fill="#F2E9FA"/>
<rect x="47.5356" y="23.7646" width="3.59619" height="0.597656" fill="#F2E9FA"/>
<rect x="47.5356" y="27.718" width="3.59619" height="0.597656" fill="#F2E9FA"/>
<rect x="47.5356" y="31.6714" width="3.59619" height="0.597656" fill="#F2E9FA"/>
<rect x="47.5356" y="35.6248" width="3.59619" height="0.597656" fill="#F2E9FA"/>
<rect x="47.5356" y="39.5782" width="3.59619" height="0.597656" fill="#F2E9FA"/>
<rect x="47.5356" y="43.5315" width="3.59619" height="0.597656" fill="#F2E9FA"/>
<rect x="47.5356" y="47.4849" width="3.59619" height="0.597656" fill="#F2E9FA"/>
</g>
<defs>
<clipPath id="clip0_6538_26640">
<rect width="48" height="48" fill="white"/>
</clipPath>
<pattern id="pattern0_6538_26640" patternUnits="userSpaceOnUse" patternTransform="matrix(11.88 0 0 3.96 0 0.000146484)" preserveAspectRatio="none" viewBox="0 0.000244141 19.8 6.6" width="1" height="1">
<use xlink:href="#pattern0_6538_26640_inner" transform="translate(-19.8 0)"/>
<g id="pattern0_6538_26640_inner">
<g opacity="0.5">
<rect x="6" y="1.00024" width="6" height="1" transform="rotate(-180 6 1.00024)" fill="#7E22CE"/>
</g>
</g>
<use xlink:href="#pattern0_6538_26640_inner" transform="translate(-9.9 3.3)"/>
<use xlink:href="#pattern0_6538_26640_inner" transform="translate(9.9 3.3)"/>
</pattern></defs>
</svg>